<svg xmlns="http://www.w3.org/2000/svg" xmlns:xlink="http://www.w3.org/1999/xlink" width="500" zoomAndPan="magnify" viewBox="0 0 375 374.999991" height="500" preserveAspectRatio="xMidYMid meet" version="1.0"><defs><g/><clipPath id="dd103c546c"><path d="M 217.34375 119.738281 L 301.550781 119.738281 L 301.550781 167.164062 L 217.34375 167.164062 Z M 217.34375 119.738281 " clip-rule="nonzero"/></clipPath></defs><g fill="#ffffff" fill-opacity="1"><g transform="translate(89.368874, 240.345096)"><g><path d="M 95.515625 -54.75 L 95.515625 -33.53125 C 92.984375 -21.914062 87.453125 -13.125 78.921875 -7.15625 C 70.390625 -1.195312 60.867188 1.78125 50.359375 1.78125 C 37.171875 1.78125 25.929688 -3.15625 16.640625 -13.03125 C 7.359375 -22.90625 2.71875 -34.835938 2.71875 -48.828125 C 2.71875 -63.046875 7.257812 -75.050781 16.34375 -84.84375 C 25.4375 -94.644531 36.773438 -99.546875 50.359375 -99.546875 C 66.242188 -99.546875 78.804688 -93.972656 88.046875 -82.828125 L 73.46875 -66.828125 C 68.257812 -75.203125 60.992188 -79.390625 51.671875 -79.390625 C 44.796875 -79.390625 38.925781 -76.40625 34.0625 -70.4375 C 29.207031 -64.476562 26.78125 -57.273438 26.78125 -48.828125 C 26.78125 -40.523438 29.207031 -33.429688 34.0625 -27.546875 C 38.925781 -21.660156 44.796875 -18.71875 51.671875 -18.71875 C 57.359375 -18.71875 62.3125 -20.4375 66.53125 -23.875 C 70.757812 -27.3125 72.875 -31.875 72.875 -37.5625 L 50.359375 -37.5625 L 50.359375 -54.75 Z M 95.515625 -54.75 "/></g></g></g><g fill="#ffffff" fill-opacity="1"><g transform="translate(173.506313, 240.345096)"><g><path d="M 87.921875 0 L 83.3125 -57.953125 L 82.71875 -57.953125 L 62.6875 -0.59375 L 49.421875 -0.59375 L 29.390625 -57.953125 L 28.796875 -57.953125 L 24.171875 0 L 1.890625 0 L 10.671875 -97.765625 L 34.359375 -97.765625 L 56.046875 -41.359375 L 77.734375 -97.765625 L 101.4375 -97.765625 L 110.203125 0 Z M 87.921875 0 "/></g></g></g><g clip-path="url(#dd103c546c)"><path fill="#000000" d="M 217.34375 119.738281 L 301.640625 119.738281 L 301.640625 167.164062 L 217.34375 167.164062 Z M 217.34375 119.738281 " fill-opacity="1" fill-rule="nonzero"/></g><path fill="#ffffff" d="M 309.007812 73.121094 C 314.066406 72.316406 318.644531 75.703125 321.195312 79.816406 C 325.582031 79.25 330.480469 80.589844 333.152344 84.320312 C 336.222656 88.355469 335.605469 94.496094 331.960938 97.972656 C 326.023438 103.507812 317.050781 104.203125 309.367188 103.386719 C 304.714844 98.199219 300.429688 91.851562 299.976562 84.679688 C 299.558594 79.277344 303.503906 73.769531 309.007812 73.121094 Z M 309.007812 73.121094 " fill-opacity="1" fill-rule="nonzero"/><path fill="#ffffff" d="M 266.183594 106.238281 C 266.371094 101.410156 271.808594 97.808594 276.332031 99.507812 C 283.234375 101.722656 290.09375 104.070312 296.964844 106.347656 C 300.304688 107.25 302.84375 110.46875 302.738281 113.964844 C 302.765625 126.78125 302.785156 139.609375 302.726562 152.4375 C 302.8125 160.605469 293.953125 167.148438 286.160156 164.648438 C 278.167969 162.714844 273.976562 152.546875 278.296875 145.546875 C 281.917969 138.753906 291.46875 136.96875 297.5625 141.484375 C 297.476562 135.164062 297.554688 128.832031 297.523438 122.511719 C 288.800781 119.609375 280.074219 116.703125 271.347656 113.789062 C 271.300781 123.386719 271.445312 132.996094 271.277344 142.59375 C 271.003906 150.769531 261.835938 156.84375 254.171875 154.007812 C 246.445312 151.742188 242.660156 141.730469 246.976562 134.929688 C 250.648438 128.246094 260.101562 126.546875 266.148438 131.023438 C 266.15625 122.757812 266.011719 114.492188 266.183594 106.238281 Z M 266.183594 106.238281 " fill-opacity="1" fill-rule="nonzero"/><path fill="#ffffff" d="M 318.507812 122.796875 C 318.460938 119.96875 321.71875 117.851562 324.308594 118.949219 C 328.625 120.390625 332.417969 123.710938 334.144531 127.960938 C 334.800781 130.304688 331.375 132.328125 329.816406 130.335938 C 328.1875 127.917969 326.398438 125.601562 323.808594 124.152344 C 323.476562 130.296875 323.90625 136.457031 323.582031 142.601562 C 323.191406 147.5 317.4375 150.855469 312.953125 148.875 C 308.390625 147.234375 306.476562 141.082031 309.332031 137.164062 C 311.246094 134.132812 315.132812 133.179688 318.472656 134.015625 C 318.5 130.273438 318.363281 126.535156 318.507812 122.796875 Z M 318.507812 122.796875 " fill-opacity="1" fill-rule="nonzero"/><path fill="#ffffff" d="M 280.414062 78.410156 C 280.386719 76.847656 282.191406 75.671875 283.625 76.28125 C 286.015625 77.078125 288.113281 78.914062 289.066406 81.269531 C 289.433594 82.566406 287.535156 83.683594 286.671875 82.582031 C 285.769531 81.246094 284.78125 79.964844 283.347656 79.160156 C 283.164062 82.558594 283.402344 85.972656 283.222656 89.371094 C 283.007812 92.082031 279.824219 93.941406 277.339844 92.84375 C 274.8125 91.9375 273.753906 88.53125 275.335938 86.363281 C 276.394531 84.683594 278.546875 84.15625 280.394531 84.621094 C 280.40625 82.550781 280.332031 80.480469 280.414062 78.410156 Z M 280.414062 78.410156 " fill-opacity="1" fill-rule="nonzero"/></svg>